<svg width="17" height="17" viewBox="0 0 17 17" fill="none" xmlns="http://www.w3.org/2000/svg">
<path d="M11.4973 7.97981H11.5041M8.49661 7.97981H8.50335M5.49588 7.97981H5.50262M5.875 13.9619H5.5C2.5 13.9619 1 13.2141 1 9.47532V5.73654C1 2.74551 2.5 1.25 5.5 1.25H11.5C14.5 1.25 16 2.74551 16 5.73654V9.47532C16 12.4664 14.5 13.9619 11.5 13.9619H11.125C10.8925 13.9619 10.6675 14.074 10.525 14.261L9.4 15.7565C8.905 16.4145 8.095 16.4145 7.6 15.7565L6.475 14.261C6.355 14.0965 6.0775 13.9619 5.875 13.9619Z" stroke="#E74822" stroke-width="1.2" stroke-linecap="round" stroke-linejoin="round"/>
</svg>
