<svg width="20" height="16" viewBox="0 0 20 16" fill="none" xmlns="http://www.w3.org/2000/svg">
<path d="M0 1.33333C0 0.596954 0.596954 0 1.33333 0H18.6667C19.403 0 20 0.596954 20 1.33333C20 2.06971 19.403 2.66667 18.6667 2.66667H1.33333C0.596954 2.66667 0 2.06971 0 1.33333Z" fill="#F2F8FD"/>
<path d="M0 8C0 7.26362 0.596954 6.66667 1.33333 6.66667H18.6667C19.403 6.66667 20 7.26362 20 8C20 8.73638 19.403 9.33333 18.6667 9.33333H1.33333C0.596954 9.33333 0 8.73638 0 8Z" fill="#F2F8FD"/>
<path d="M0 14.6667C0 13.9303 0.596954 13.3333 1.33333 13.3333H18.6667C19.403 13.3333 20 13.9303 20 14.6667C20 15.403 19.403 16 18.6667 16H1.33333C0.596954 16 0 15.403 0 14.6667Z" fill="#F2F8FD"/>
</svg>
