<svg width="17" height="15" viewBox="0 0 17 15" fill="none" xmlns="http://www.w3.org/2000/svg">
<path d="M11.244 7.754C11.244 9.27938 10.0176 10.512 8.49997 10.512C6.98234 10.512 5.75597 9.27938 5.75597 7.754C5.75597 6.22862 6.98234 4.996 8.49997 4.996C10.0176 4.996 11.244 6.22862 11.244 7.754Z" stroke="#E74822" stroke-width="1.2" stroke-linecap="round" stroke-linejoin="round"/>
<path d="M8.5 14.125C11.2057 14.125 13.7274 12.5226 15.4826 9.74917C16.1725 8.66292 16.1725 6.83708 15.4826 5.75083C13.7274 2.97742 11.2057 1.375 8.5 1.375C5.79433 1.375 3.27261 2.97742 1.51737 5.75083C0.827542 6.83708 0.827542 8.66292 1.51737 9.74917C3.27261 12.5226 5.79433 14.125 8.5 14.125Z" stroke="#E74822" stroke-width="1.2" stroke-linecap="round" stroke-linejoin="round"/>
</svg>
